<?xml version="1.0" encoding="utf-8"?>
<!-- Generator: Adobe Illustrator 23.0.4, SVG Export Plug-In . SVG Version: 6.00 Build 0)  -->
<!DOCTYPE svg PUBLIC "-//W3C//DTD SVG 1.1//EN" "http://www.w3.org/Graphics/SVG/1.1/DTD/svg11.dtd" [
	<!ENTITY ns_extend "http://ns.adobe.com/Extensibility/1.0/">
	<!ENTITY ns_ai "http://ns.adobe.com/AdobeIllustrator/10.0/">
	<!ENTITY ns_graphs "http://ns.adobe.com/Graphs/1.0/">
	<!ENTITY ns_vars "http://ns.adobe.com/Variables/1.0/">
	<!ENTITY ns_imrep "http://ns.adobe.com/ImageReplacement/1.0/">
	<!ENTITY ns_sfw "http://ns.adobe.com/SaveForWeb/1.0/">
	<!ENTITY ns_custom "http://ns.adobe.com/GenericCustomNamespace/1.0/">
	<!ENTITY ns_adobe_xpath "http://ns.adobe.com/XPath/1.0/">
]>
<svg version="1.1" id="Layer_1" xmlns:x="&ns_extend;" xmlns:i="&ns_ai;" xmlns:graph="&ns_graphs;"
	 xmlns="http://www.w3.org/2000/svg" xmlns:xlink="http://www.w3.org/1999/xlink" x="0px" y="0px" viewBox="0 0 1043.4 172.7"
	 style="enable-background:new 0 0 1043.4 172.7;" xml:space="preserve">
<metadata>
	<sfw  xmlns="&ns_sfw;">
		<slices></slices>
		<sliceSourceBounds  bottomLeftOrigin="true" height="172.7" width="1043.4" x="-310" y="347.7"></sliceSourceBounds>
	</sfw>
</metadata>
<polygon points="156.8,33.1 123.8,132 90.9,33.1 82.9,33.1 117.9,138.2 129.8,138.2 164.7,33.1 "/>
<path d="M433.6,111.5c-4.4,12.4-16.2,20.8-29.5,20.8h-2.6c-13.2,0-25.1-8.4-29.5-20.8c-0.6-1.8-2.5-7.2-2.5-25.9
	c0-16.7,1.4-22.7,2.5-25.8c4.4-12.4,16.2-20.8,29.5-20.8h2.6c13.3,0,25.1,8.3,29.5,20.8c0.6,1.8,2.5,7.2,2.5,25.8
	C436.1,98.2,435.3,106.7,433.6,111.5 M436.1,33.1v15.2c-7.1-10.3-19-16.8-32-16.8h-2.6c-16.5,0-31.2,10.4-36.6,25.8
	c-1.4,3.9-3,10.7-3,28.3c0,17.9,1.7,24.8,3,28.4c5.5,15.4,20.2,25.8,36.6,25.8h2.6c13,0,24.9-6.5,32-16.8c-0.2,10-1,17-2.5,21.3
	c-4.4,12.4-16.2,20.8-29.5,20.8h-2.6c-11.7,0-22.8-5.5-28.6-13.6h-8.8c6.3,12.6,21.1,21.2,37.5,21.2h2.6c16.5,0,31.2-10.4,36.6-25.8
	c1.3-3.6,3-10.5,3-28.4V33.1H436.1z"/>
<path d="M469.4,59.9c4.4-12.4,16.2-20.8,29.5-20.8h2.6c13.3,0,25.1,8.3,29.5,20.8c0.5,1.4,2,5.6,2.4,17.7h-66.4
	C467.3,66.9,468.5,62.4,469.4,59.9 M533.4,112.2l-0.2,0.5c-4,11.4-17.4,19.6-31.8,19.6h-2.6c-13.2,0-25.1-8.3-29.5-20.8
	c-0.6-1.8-2.5-7.2-2.5-25.9v-0.5h74.3l-0.1-3.9c-0.2-14.7-1.8-20.7-2.9-24c-5.4-15.4-20.2-25.8-36.6-25.8h-2.6
	c-16.5,0-31.2,10.4-36.6,25.8c-1.4,3.9-3,10.7-3,28.3c0,17.9,1.7,24.8,3,28.4c5.5,15.4,20.2,25.8,36.6,25.8h2.6
	c17.8,0,33.8-10.1,39-24.7l1.1-3H533.4z"/>
<path d="M178.2,59.9c4.4-12.4,16.2-20.8,29.5-20.8h2.6c13.2,0,25.1,8.3,29.5,20.8c0.5,1.4,2,5.6,2.4,17.7h-66.4
	C176.2,66.9,177.3,62.4,178.2,59.9 M242.3,112.2l-0.2,0.5c-4,11.4-17.4,19.6-31.8,19.6h-2.6c-13.3,0-25.1-8.3-29.5-20.8
	c-0.6-1.8-2.5-7.2-2.5-25.9v-0.5H250l-0.1-3.9c-0.2-14.7-1.8-20.7-2.9-24c-5.4-15.4-20.2-25.8-36.6-25.8h-2.6
	c-16.5,0-31.2,10.4-36.6,25.8c-1.4,3.9-3,10.7-3,28.3c0,17.9,1.7,24.8,3,28.4c5.5,15.4,20.2,25.8,36.6,25.8h2.6
	c17.8,0,33.8-10.1,39-24.7l1.1-3H242.3z"/>
<path d="M40.3,77.7c-19.2,0-29-6.3-29-18.6c0-8.6,2.8-20,27-20h3.1c22.1,0,26.3,9.6,26.9,17.8h7.6c-0.7-12.1-7.6-25.3-34.5-25.3
	h-3.1c-28.5,0-34.5,15-34.5,27.6c0,9.8,4.8,26.1,36.6,26.1c28,0,31.8,12.3,31.8,24.2c0,15.1-10,22.8-29.7,22.8h-5.1
	c-19.7,0-29.7-7.7-29.7-22.8H0c0,19.6,13.3,30.4,37.3,30.4h5.1c24.1,0,37.3-10.8,37.3-30.4C79.7,88.1,66.8,77.7,40.3,77.7"/>
<polygon points="343.1,20.3 335.5,20.3 335.5,0 339.5,0 343.1,0 "/>
<polygon points="343.1,33.1 339.1,33.1 335.5,33.1 335.5,138.2 343.1,138.2 "/>
<polygon points="944.3,20.3 940.6,20.3 936.7,20.3 936.7,0 944.3,0 "/>
<polygon points="944.3,33.1 940.6,33.1 936.7,33.1 936.7,138.2 944.3,138.2 "/>
<path d="M318.9,32.7c-3.1-0.8-6.4-1.2-9.7-1.2h-2.6c-13,0-24.9,6.5-32,16.8V33.1h-7.6v105.1h7.6V83.8c0.1-15.3,1.5-21,2.5-24
	c4.4-12.4,16.2-20.7,29.5-20.7h2.6c3.4,0,6.6,0.6,9.7,1.6V32.7z"/>
<path d="M1001.2,39.1c-13.2,0-25.1,8.3-29.5,20.8c-1.1,3.1-2.5,9.1-2.5,25.8c0,18.7,1.9,24.1,2.5,25.9c4.4,12.4,16.2,20.8,29.5,20.8
	h2.6c13.2,0,25.1-8.3,29.5-20.8c1.7-4.8,2.5-13.3,2.5-25.9c0-18.6-1.9-24-2.5-25.8c-4.4-12.4-16.2-20.8-29.5-20.8H1001.2z
	 M1003.8,139.8h-2.6c-16.4,0-31.2-10.4-36.6-25.8c-1.3-3.6-3-10.5-3-28.4c0-17.7,1.6-24.4,3-28.3c5.5-15.4,20.2-25.8,36.6-25.8h2.6
	c16.5,0,31.2,10.4,36.6,25.8c1.4,3.9,3,10.7,3,28.3c0,17.9-1.7,24.8-3,28.4C1035,129.5,1020.2,139.8,1003.8,139.8"/>
<path d="M906.6,111.5c-4.4,12.4-16.2,20.8-29.5,20.8h-2.6c-13.2,0-25.1-8.4-29.5-20.8c-0.6-1.8-2.5-7.2-2.5-25.9
	c0-16.7,1.5-22.7,2.5-25.8c4.4-12.4,16.2-20.8,29.5-20.8h2.6c13.2,0,25.1,8.3,29.5,20.8c0.6,1.8,2.5,7.2,2.5,25.8
	C909.2,98.2,908.3,106.7,906.6,111.5 M909.2,138.2h7.6V0h-7.6v48.4c-7.1-10.3-19-16.9-32-16.9h-2.6c-16.4,0-31.2,10.4-36.6,25.8
	c-1.4,3.9-3,10.7-3,28.3c0,17.9,1.7,24.8,3,28.4c5.4,15.4,20.2,25.8,36.6,25.8h2.6c13,0,24.9-6.5,32-16.9V138.2z"/>
<path d="M811.9,85.5L811.9,85.5c0,12.6-0.8,21-2.6,25.9c-4.4,12.4-16.2,20.8-29.5,20.8l-2.8,0c-19.8,0-29.8-7.7-29.8-22.9v-1.1
	c0-12,3.9-23.2,31.9-23.2h32.8V85.5z M819.5,61.3c0-18.8-12.9-30-34.6-30h-3.1c-22.5,0-35.7,9.2-36.8,25.4h7.6
	c1.4-14.6,16.4-17.8,29.2-17.8h3.1c10.1,0,27,2.9,27,22.4v16.2h-32.8c-26.9,0-39.5,9.8-39.5,30.7v1.1c0,19.6,13.3,30.4,37.4,30.4
	l3.1,0c12.9-0.1,24.8-6.6,31.8-16.9l0,15.2h7.6L819.5,61.3z"/>
<path d="M699.5,58.9c0-26.6-26.2-25.1-34.3-26.6H703c10.9,0,28.2,7.2,28.2,26.6c0,19.5-13.6,26.6-24.5,26.6H689
	C689,85.6,699.5,85.6,699.5,58.9"/>
<polygon points="556.2,138.2 601.5,138.2 556.2,90.9 "/>
<polygon points="604,32.3 647.1,83.8 647.1,32.3 "/>
<polygon points="687.1,85.6 648.6,85.6 692.6,138.2 733.7,138.2 "/>
<path d="M587,58.9c0,20.1,6.5,25.1,14.5,26.6h-22.7c-10.7,0-24.2-7.2-24.2-26.6c0-19.5,13.5-26.6,24.2-26.6h22.7
	C593.5,33.9,587,38.9,587,58.9"/>
<path d="M618.5,111.9c0-19.8-6.5-24.7-14.7-26.3h22.9c10.8,0,24.5,7.1,24.5,26.3c0,19.2-13.6,26.3-24.5,26.3h-22.9
	C612,136.6,618.5,131.7,618.5,111.9"/>
</svg>
